<?xml version="1.0" standalone="no"?>
<!DOCTYPE svg PUBLIC "-//W3C//DTD SVG 20010904//EN"
 "http://www.w3.org/TR/2001/REC-SVG-20010904/DTD/svg10.dtd">
<svg version="1.0" xmlns="http://www.w3.org/2000/svg"
 width="674.000000pt" height="674.000000pt" viewBox="0 0 674.000000 674.000000"
 preserveAspectRatio="xMidYMid meet">
<metadata>
Created by potrace 1.14, written by Peter Selinger 2001-2017
</metadata>
<g transform="translate(0.000000,674.000000) scale(0.100000,-0.100000)"
fill="#000000" stroke="none">
<path d="M3121 6119 c-35 -5 -76 -16 -92 -24 -15 -8 -33 -15 -39 -15 -6 0 -27
-7 -48 -17 -48 -21 -42 -19 -79 -28 -18 -4 -33 -11 -33 -16 0 -5 -8 -9 -18 -9
-10 0 -27 -7 -38 -15 -10 -8 -25 -15 -32 -15 -15 0 -121 -72 -122 -82 0 -4 23
5 52 20 36 19 53 23 56 14 2 -6 8 -12 13 -12 4 0 5 8 2 18 -6 15 -5 15 10 3
10 -8 17 -9 17 -3 0 6 14 13 30 17 17 4 30 10 30 15 0 4 20 15 45 23 28 10 45
12 45 5 0 -5 -9 -12 -20 -15 -29 -8 -25 -21 5 -18 15 2 25 -2 25 -10 0 -7 7
-15 15 -19 8 -3 15 -14 15 -25 0 -18 5 -20 33 -15 17 3 39 8 47 11 8 3 22 7
30 9 8 2 16 8 18 13 5 16 28 13 46 -5 15 -14 16 -13 16 7 0 17 3 20 11 12 9
-9 18 -9 38 0 14 7 35 12 46 12 28 -1 46 20 38 42 -6 17 -5 17 14 1 22 -20 43
-24 43 -8 0 17 51 24 61 9 7 -11 9 -10 9 4 0 15 3 14 22 -5 14 -14 23 -18 26
-10 2 7 15 12 29 12 22 0 24 3 19 25 -4 14 -2 25 4 25 5 0 10 -6 11 -12 0 -7
4 -4 9 7 8 18 9 18 9 -4 1 -19 4 -22 12 -14 18 18 45 -13 29 -32 -8 -10 -9
-15 -2 -15 6 0 18 10 27 23 12 17 17 19 24 8 7 -11 9 -11 13 0 4 10 11 8 27
-10 12 -14 21 -19 21 -11 0 11 2 12 13 1 10 -10 8 -15 -7 -27 -26 -19 -16 -26
14 -10 21 10 29 10 48 -2 18 -12 25 -12 38 -1 8 7 13 21 11 31 -6 22 7 23 61
4 29 -10 43 -11 51 -3 8 8 18 4 36 -13 18 -17 28 -21 33 -13 5 8 13 9 22 3 19
-13 40 -13 40 0 0 8 -20 19 -95 51 -29 12 -154 49 -200 59 -22 4 -49 11 -60
13 -160 40 -434 57 -574 36z m749 -103 c0 -3 -4 -8 -10 -11 -5 -3 -10 -1 -10
4 0 6 5 11 10 11 6 0 10 -2 10 -4z m-100 -10 c0 -3 -4 -8 -10 -11 -5 -3 -10
-1 -10 4 0 6 5 11 10 11 6 0 10 -2 10 -4z"/>
<path d="M3838 5968 c9 -9 15 -9 24 0 9 9 7 12 -12 12 -19 0 -21 -3 -12 -12z"/>
<path d="M2931 5914 c0 -11 3 -14 6 -6 3 7 2 16 -1 19 -3 4 -6 -2 -5 -13z"/>
<path d="M4121 5914 c0 -11 3 -14 6 -6 3 7 2 16 -1 19 -3 4 -6 -2 -5 -13z"/>
<path d="M2568 5872 c-21 -13 -38 -30 -37 -36 0 -7 3 -6 6 2 2 6 13 12 22 12
17 0 58 36 50 44 -2 2 -21 -8 -41 -22z"/>
<path d="M2437 5780 c-26 -16 -136 -126 -237 -235 -87 -95 -173 -225 -149
-225 7 0 9 -3 5 -7 -4 -5 -13 -8 -19 -8 -17 0 -54 -130 -61 -215 -4 -41 -9
-102 -12 -135 -4 -52 -8 -91 -19 -170 -2 -11 -6 -27 -10 -36 -4 -10 0 -19 9
-22 19 -8 21 -27 3 -27 -17 0 -38 -36 -31 -54 3 -8 1 -17 -4 -20 -6 -3 -8 -15
-5 -26 3 -11 0 -27 -7 -35 -9 -11 -10 -15 -1 -15 8 0 10 -8 5 -22 -4 -13 -8
-42 -9 -65 -1 -24 -4 -45 -7 -48 -3 -3 -2 -22 2 -41 4 -19 5 -36 1 -39 -14 -8
-12 -85 2 -85 8 0 7 -4 -3 -10 -10 -6 -11 -10 -2 -10 6 0 12 -8 12 -17 0 -16
-2 -16 -11 -3 -7 11 -9 4 -6 -28 l5 -44 -32 7 c-39 8 -127 16 -103 9 9 -3 17
-10 17 -14 0 -5 15 -17 33 -26 52 -27 112 -104 104 -135 -3 -10 -1 -19 5 -19
6 0 8 -6 5 -14 -3 -7 -2 -31 3 -52 14 -71 20 -119 11 -106 -6 11 -18 4 -50
-26 -43 -41 -51 -71 -26 -92 21 -18 20 -95 -2 -118 -49 -48 -70 -104 -50 -128
27 -33 37 -42 49 -47 10 -4 8 -9 -4 -20 -28 -23 -21 -34 33 -53 45 -17 71 -40
75 -69 1 -5 2 -14 3 -18 0 -4 11 1 23 12 19 19 20 24 10 58 -7 22 -8 41 -2 47
5 5 5 19 -1 34 -7 18 -6 27 2 32 8 6 8 9 0 15 -7 3 -9 15 -6 26 4 10 2 19 -4
19 -7 0 -7 8 0 27 5 14 7 34 3 42 -5 14 -13 119 -16 214 -1 15 -4 27 -7 27 -4
0 -8 37 -9 83 -2 45 -6 108 -11 139 -5 37 -4 61 3 68 7 7 7 13 0 20 -6 6 -8
31 -4 63 4 28 3 54 -1 55 -5 2 -9 10 -9 17 0 7 -6 16 -12 19 -7 3 -5 4 5 3 15
-2 19 6 22 47 1 27 8 52 15 56 8 5 9 13 4 21 -11 18 -6 47 13 76 15 22 15 26
0 41 -13 12 -17 13 -17 3 0 -11 -3 -11 -15 -1 -17 14 -20 50 -5 50 6 0 10 -7
10 -15 0 -8 5 -15 10 -15 6 0 10 4 10 10 0 5 6 7 13 4 10 -3 12 4 9 29 -2 22
2 39 12 50 23 22 20 40 -4 32 -16 -5 -20 -2 -18 17 2 17 -3 24 -20 26 -12 2
-20 7 -17 12 3 4 15 6 28 2 19 -5 20 -4 8 11 -7 9 -11 24 -7 32 3 8 1 15 -5
15 -6 0 -7 5 -4 10 3 6 17 7 29 4 21 -5 24 -1 28 33 6 47 2 56 -23 43 -19 -10
-19 -10 -2 27 9 21 26 48 37 61 13 14 15 22 7 22 -8 0 -11 8 -8 19 3 14 1 18
-9 14 -21 -8 -17 11 6 25 20 12 27 37 13 45 -5 2 -2 2 5 1 6 -2 12 3 12 11 0
8 11 26 25 41 28 30 31 39 12 31 -10 -4 -12 3 -9 25 3 18 9 27 17 24 7 -2 15
4 18 15 3 10 0 19 -5 19 -7 0 -6 5 1 14 10 11 8 15 -6 19 -14 4 -13 5 5 6 23
1 32 21 10 21 -8 0 -9 3 -3 8 21 15 16 34 -7 28 -16 -4 -15 -2 5 6 26 12 37
28 17 28 -5 0 -10 5 -10 11 0 5 4 7 10 4 5 -3 19 -1 31 6 17 9 19 13 8 20 -11
7 -11 9 3 9 10 0 22 9 28 20 7 14 7 20 0 20 -5 0 -10 5 -10 10 0 6 7 10 15 10
8 0 15 7 15 15 0 8 9 24 20 35 12 12 18 25 14 31 -3 6 2 17 12 24 11 8 16 15
12 15 -4 0 9 17 30 37 20 20 37 42 37 48 0 6 12 24 28 40 15 16 27 33 27 37 0
5 7 8 16 8 8 0 12 5 9 10 -4 6 4 19 17 30 29 24 22 24 -15 0z m-487 -1140 c0
-5 -5 -10 -11 -10 -5 0 -7 5 -4 10 3 6 8 10 11 10 2 0 4 -4 4 -10z m17 -36
c-3 -3 -12 -4 -19 -1 -8 3 -5 6 6 6 11 1 17 -2 13 -5z m-14 -58 c-3 -4 -9 -2
-14 5 -13 22 -11 31 5 17 8 -7 12 -17 9 -22z m2 -106 c-3 -5 -14 -10 -23 -10
-15 0 -15 2 -2 10 20 13 33 13 25 0z m-30 -271 c-10 -15 -25 -10 -19 6 4 8 10
12 15 9 5 -3 7 -10 4 -15z m19 -621 c-1 -57 -3 -105 -4 -108 -1 -3 -2 -22 -2
-42 1 -43 -5 -46 -38 -18 -24 21 -39 95 -25 127 5 10 7 24 6 31 -1 6 3 12 10
12 6 0 9 6 6 14 -3 8 1 20 8 26 8 7 12 16 9 21 -3 5 0 9 5 9 6 0 11 7 11 15 0
8 4 15 8 15 5 0 7 -46 6 -102z m40 -293 c-4 -8 -8 -15 -10 -15 -2 0 -4 7 -4
15 0 8 4 15 10 15 5 0 7 -7 4 -15z"/>
<path d="M4390 5691 c0 -5 5 -13 10 -16 6 -3 10 -2 10 4 0 5 -4 13 -10 16 -5
3 -10 2 -10 -4z"/>
<path d="M4443 5637 c0 -17 24 -39 31 -28 3 4 -3 16 -13 25 -13 12 -18 12 -18
3z"/>
<path d="M4475 5590 c-7 -11 29 -49 46 -50 7 0 32 -57 36 -80 1 -8 10 -20 20
-28 10 -7 17 -20 15 -28 -2 -8 1 -14 5 -14 5 0 14 -9 21 -21 8 -12 9 -18 3
-14 -6 3 -11 2 -11 -4 0 -5 4 -12 9 -15 5 -3 11 -15 14 -26 3 -11 1 -18 -4
-14 -17 10 -9 -8 11 -24 11 -10 23 -28 25 -42 13 -70 17 -87 24 -105 8 -19 23
-73 59 -212 17 -67 33 -85 28 -30 -11 102 -29 227 -38 262 -6 22 -12 47 -14
55 -15 85 -59 177 -128 263 -103 129 -113 139 -121 127z m200 -310 c3 -5 2
-10 -4 -10 -5 0 -13 5 -16 10 -3 6 -2 10 4 10 5 0 13 -4 16 -10z"/>
<path d="M4785 4760 c-3 -5 -1 -10 4 -10 6 0 11 5 11 10 0 6 -2 10 -4 10 -3 0
-8 -4 -11 -10z"/>
<path d="M2005 4719 c-4 -11 -4 -23 -1 -26 3 -4 6 1 6 10 0 10 5 17 10 17 6 0
10 5 10 10 0 18 -19 10 -25 -11z"/>
<path d="M2493 4529 c-24 -12 -40 -25 -37 -30 3 -5 0 -9 -5 -9 -6 0 -11 -7
-11 -16 0 -10 -6 -14 -14 -11 -14 6 -56 -35 -56 -53 0 -6 -11 -15 -25 -20 -14
-5 -28 -17 -31 -25 -4 -8 -18 -15 -33 -16 -23 0 -24 -1 -6 -9 19 -7 19 -8 2
-15 -10 -4 -16 -14 -13 -21 3 -7 1 -16 -5 -19 -5 -4 -7 -11 -4 -16 4 -5 -1 -9
-9 -9 -9 0 -16 -4 -16 -10 0 -5 8 -7 18 -4 9 3 5 -2 -10 -11 -36 -20 -35 -28
2 -20 36 8 40 -2 7 -14 -33 -13 -31 -41 2 -41 55 0 92 21 59 33 -7 2 -1 3 14
1 14 -2 32 3 38 11 11 13 8 14 -16 11 -16 -2 -23 -1 -15 1 8 3 21 11 29 19 7
8 22 14 32 14 10 0 22 5 26 12 5 8 2 9 -10 5 -11 -4 -16 -3 -14 4 2 6 7 10 11
10 4 -1 16 -1 28 -1 12 0 18 -4 13 -11 -4 -7 -2 -10 5 -8 7 3 12 9 11 14 -1 5
7 12 17 16 17 7 17 8 0 8 -10 1 -16 5 -12 10 7 12 65 11 65 -1 0 -4 -5 -8 -12
-8 -6 0 -8 -3 -5 -7 8 -8 87 26 107 47 18 18 47 19 75 3 11 -6 54 -14 95 -17
41 -4 76 -9 79 -11 2 -3 10 0 18 6 9 9 13 8 13 0 0 -18 28 -13 50 9 11 11 20
17 20 13 0 -10 20 19 20 30 0 4 -6 7 -14 7 -17 0 -49 30 -41 38 3 3 11 -3 19
-13 9 -12 15 -15 20 -7 4 7 2 12 -4 12 -6 0 -15 11 -20 24 -10 27 -76 52 -111
43 -11 -3 -16 -1 -13 5 4 6 -19 7 -60 4 -67 -5 -100 0 -91 14 3 4 -9 10 -26
14 -17 3 -28 10 -25 15 3 4 -11 11 -32 15 -52 8 -52 8 -99 -15z m426 -74 c16
-5 20 -10 13 -17 -8 -8 -21 -4 -44 11 -32 22 -27 22 31 6z m-418 -122 c13 -16
12 -17 -3 -4 -10 7 -18 15 -18 17 0 8 8 3 21 -13z m-211 -159 c0 -2 -11 -4
-25 -4 -14 0 -25 4 -25 9 0 4 11 6 25 3 14 -2 25 -6 25 -8z"/>
<path d="M4270 4520 c0 -5 7 -10 16 -10 8 0 12 5 9 10 -3 6 -10 10 -16 10 -5
0 -9 -4 -9 -10z"/>
<path d="M4159 4490 c-14 -4 -37 -15 -51 -24 -19 -13 -34 -14 -71 -7 -31 5
-50 5 -58 -3 -8 -8 -13 -8 -16 0 -5 14 -139 -8 -156 -26 -10 -10 -7 -11 11 -5
l23 7 -22 -26 c-12 -14 -25 -23 -28 -20 -3 3 1 9 9 14 8 6 11 10 5 10 -12 -1
-45 -25 -45 -33 0 -4 7 -4 15 -1 10 4 15 0 15 -12 1 -16 5 -14 26 10 27 31 44
26 47 -13 1 -23 37 -39 57 -26 6 4 17 0 23 -8 10 -12 24 -13 97 -3 47 7 98 18
114 24 16 7 38 10 49 6 12 -4 17 -2 13 4 -8 13 19 23 31 11 6 -6 34 -12 64
-14 30 -3 55 -9 57 -15 2 -5 17 -10 34 -10 29 0 86 -44 80 -62 -1 -5 5 -8 13
-8 8 0 18 0 22 -1 4 0 9 4 11 10 2 6 -1 11 -8 11 -23 0 -38 24 -29 47 5 14 5
23 -1 23 -6 0 -10 5 -10 12 0 17 -51 68 -67 68 -8 0 -11 5 -8 11 4 6 1 10 -6
8 -24 -3 -39 1 -38 9 5 27 -3 34 -31 30 -16 -3 -30 -2 -30 1 0 9 -111 9 -141
1z m121 -54 c0 -11 -19 -15 -25 -6 -3 5 1 10 9 10 9 0 16 -2 16 -4z m-40 -26
c13 -9 13 -10 0 -10 -8 0 -22 5 -30 10 -13 9 -13 10 0 10 8 0 22 -5 30 -10z
m164 -6 c5 -14 4 -15 -9 -4 -17 14 -19 20 -6 20 5 0 12 -7 15 -16z m27 -42
c-7 -2 -18 1 -23 6 -8 8 -4 9 13 5 13 -4 18 -8 10 -11z"/>
<path d="M2950 4464 c0 -18 28 -30 41 -17 6 6 0 14 -16 21 -21 10 -25 9 -25
-4z"/>
<path d="M4380 4470 c0 -5 5 -10 11 -10 5 0 7 5 4 10 -3 6 -8 10 -11 10 -2 0
-4 -4 -4 -10z"/>
<path d="M3020 4413 c5 -2 8 -9 4 -14 -3 -5 0 -9 6 -9 15 0 7 23 -8 26 -7 1
-8 0 -2 -3z"/>
<path d="M4500 4219 c0 -5 5 -9 11 -9 5 0 8 -3 6 -7 -3 -5 6 -9 19 -9 31 -2
30 1 -6 20 -16 8 -30 10 -30 5z"/>
<path d="M2345 4150 c-8 -13 4 -32 16 -25 12 8 12 35 0 35 -6 0 -13 -4 -16
-10z"/>
<path d="M2230 4141 c0 -5 9 -7 20 -4 11 3 20 7 20 9 0 2 -9 4 -20 4 -11 0
-20 -4 -20 -9z"/>
<path d="M4847 4134 c-4 -4 -7 -14 -7 -23 0 -11 3 -12 11 -4 6 6 10 16 7 23
-2 6 -7 8 -11 4z"/>
<path d="M2540 4119 c-25 -5 -55 -7 -66 -4 -12 3 -38 -2 -59 -10 -43 -19 -65
-62 -65 -131 0 -37 4 -47 20 -51 12 -3 19 -13 17 -26 -1 -15 6 -24 27 -31 24
-9 31 -7 45 9 10 12 25 19 40 17 20 -3 23 -1 18 20 -8 30 1 43 36 52 15 3 27
12 27 19 0 6 12 18 27 24 29 14 43 5 43 -28 0 -26 56 -71 94 -76 61 -6 126 42
126 94 0 34 15 36 75 8 31 -14 60 -25 65 -25 6 0 10 -4 10 -10 0 -5 7 -10 16
-10 10 0 14 -6 10 -15 -4 -10 1 -15 15 -15 16 0 19 4 14 18 -17 42 -18 52 -1
46 24 -9 19 12 -7 33 -52 40 -154 83 -222 93 -85 12 -243 11 -305 -1z m322
-23 c17 -9 37 -16 43 -16 7 0 18 -7 25 -15 7 -8 9 -15 5 -15 -14 0 -90 23
-100 31 -5 4 -41 6 -78 4 -37 -1 -70 2 -73 7 -3 5 -12 4 -19 -2 -8 -6 -22 -10
-32 -8 -10 1 -24 -1 -30 -5 -8 -5 -13 -3 -13 7 0 9 14 20 33 25 45 15 201 6
239 -13z m-112 -66 c0 -5 -5 -10 -11 -10 -5 0 -7 5 -4 10 3 6 8 10 11 10 2 0
4 -4 4 -10z m70 0 c0 -5 -7 -10 -15 -10 -8 0 -15 5 -15 10 0 6 7 10 15 10 8 0
15 -4 15 -10z m150 0 c0 -5 -4 -10 -10 -10 -5 0 -10 5 -10 10 0 6 5 10 10 10
6 0 10 -4 10 -10z"/>
<path d="M3930 4116 c-62 -23 -142 -67 -166 -91 -28 -28 -30 -35 -9 -35 9 0
12 -6 9 -15 -4 -10 0 -15 15 -15 12 0 21 4 21 10 0 5 12 13 28 16 15 4 38 15
51 26 38 29 58 23 66 -18 11 -59 43 -83 111 -83 69 1 100 26 110 88 4 23 12
41 19 41 7 0 30 -16 50 -35 32 -29 44 -34 76 -31 22 2 45 -2 56 -10 38 -28 51
-18 49 39 0 28 -5 52 -11 52 -5 0 -23 9 -40 21 -51 34 -86 45 -160 50 -74 4
-74 5 20 -20 37 -10 95 -46 95 -59 0 -9 -44 -4 -51 6 -3 4 -16 9 -27 10 -12 1
-22 5 -22 9 0 4 -9 8 -20 8 -11 0 -20 7 -20 15 0 11 -5 12 -25 5 -13 -5 -59
-8 -101 -7 -41 1 -78 -1 -80 -5 -3 -4 -12 -4 -21 -1 -13 5 -12 8 8 16 13 5 40
13 59 17 35 8 35 8 -10 8 -25 0 -61 -5 -80 -12z m-5 -36 c-3 -5 -14 -10 -23
-10 -15 0 -15 2 -2 10 20 13 33 13 25 0z m165 -51 c0 -5 -7 -9 -15 -9 -15 0
-20 12 -9 23 8 8 24 -1 24 -14z m-60 1 c0 -5 -9 -10 -20 -10 -11 0 -20 5 -20
10 0 6 9 10 20 10 11 0 20 -4 20 -10z m-5 -80 c3 -5 2 -10 -4 -10 -5 0 -13 5
-16 10 -3 6 -2 10 4 10 5 0 13 -4 16 -10z"/>
<path d="M1657 4070 c4 -16 3 -21 -5 -16 -19 12 -42 -58 -32 -96 5 -18 14
-100 20 -183 11 -151 15 -192 27 -275 11 -87 12 -113 4 -127 -4 -8 -6 -25 -3
-38 3 -19 8 -22 26 -16 16 6 26 3 42 -16 13 -15 26 -22 37 -17 19 7 23 49 7
59 -22 14 -58 83 -63 120 -2 22 -10 70 -17 107 -10 57 -9 75 4 125 9 32 21 67
25 78 11 24 39 141 43 175 2 17 10 26 26 28 12 2 22 10 22 17 0 17 -97 75
-125 75 -12 0 -26 5 -32 11 -9 9 -10 6 -6 -11z m48 -240 c-11 -17 -23 -1 -18
21 5 19 7 19 15 5 5 -9 6 -21 3 -26z m12 -37 c-2 -5 -7 -17 -11 -28 -6 -16 -9
-17 -16 -5 -16 24 -11 40 11 40 11 0 18 -3 16 -7z"/>
<path d="M4820 4064 c0 -8 5 -12 10 -9 6 4 8 11 5 16 -9 14 -15 11 -15 -7z"/>
<path d="M4947 4029 l-27 -20 37 -55 c20 -29 40 -54 45 -54 5 0 8 -17 7 -37
-1 -21 -2 -60 -1 -88 3 -70 22 -38 22 37 0 31 5 69 11 85 21 56 19 100 -6 127
-29 31 -54 33 -88 5z"/>
<path d="M2451 3834 c0 -11 3 -14 6 -6 3 7 2 16 -1 19 -3 4 -6 -2 -5 -13z"/>
<path d="M4819 3729 c-1 -13 -3 -35 -4 -48 l-2 -24 18 24 c23 29 24 43 4 59
-13 10 -15 9 -16 -11z"/>
<path d="M3105 3477 c-23 -41 -54 -111 -55 -124 0 -1 8 1 18 4 24 9 42 29 42
45 0 8 5 19 11 25 9 9 22 104 15 103 -1 0 -14 -24 -31 -53z"/>
<path d="M2007 3300 c6 -22 15 -19 19 5 1 8 -4 15 -11 15 -8 0 -11 -7 -8 -20z"/>
<path d="M2055 3310 c-3 -5 -1 -10 4 -10 6 0 11 5 11 10 0 6 -2 10 -4 10 -3 0
-8 -4 -11 -10z"/>
<path d="M3129 3303 c-10 -2 -19 -12 -22 -23 -3 -13 -1 -17 10 -13 12 5 14 1
8 -18 -8 -24 -23 -40 -58 -60 -13 -7 -15 -14 -8 -23 7 -9 7 -16 -1 -24 -19
-19 -38 -14 -38 10 0 21 0 21 -14 2 -12 -15 -12 -22 -2 -34 7 -8 16 -23 19
-32 6 -16 83 -58 107 -58 6 0 13 -7 16 -15 4 -8 13 -15 21 -15 10 0 14 -7 10
-20 -3 -13 1 -24 13 -30 27 -14 34 -12 20 5 -9 10 -9 15 -1 15 6 0 11 7 11 15
0 9 9 15 24 15 20 0 23 4 19 23 -3 16 -2 18 5 8 5 -7 14 -11 20 -7 6 3 16 -2
22 -11 10 -16 11 -16 5 2 -16 45 -12 50 34 47 55 -3 102 12 130 42 21 22 21
24 4 30 -10 4 -47 10 -83 12 -62 5 -102 17 -126 39 -7 6 -38 35 -70 66 -34 32
-66 54 -75 52z"/>
<path d="M2040 3246 c0 -9 5 -16 10 -16 6 0 10 4 10 9 0 6 -4 13 -10 16 -5 3
-10 -1 -10 -9z"/>
<path d="M2010 3232 c0 -18 -20 -34 -45 -36 -13 -1 -18 -41 -10 -82 6 -34 25
-48 25 -18 0 11 6 15 20 11 11 -3 23 -1 26 5 3 5 -3 12 -15 15 -15 4 -21 13
-21 35 0 23 4 29 16 24 9 -3 21 -6 27 -6 6 0 2 -6 -8 -14 -18 -13 -17 -13 8
-13 32 0 34 8 6 33 -11 10 -18 26 -16 36 3 10 1 21 -4 24 -5 3 -9 -4 -9 -14z
m-30 -62 c0 -5 -5 -10 -11 -10 -5 0 -7 5 -4 10 3 6 8 10 11 10 2 0 4 -4 4 -10z"/>
<path d="M3595 3214 c-28 -14 -45 -31 -45 -45 0 -17 60 -27 120 -21 76 8 84
24 31 59 -40 27 -65 29 -106 7z"/>
<path d="M2965 3190 c-3 -5 -2 -10 4 -10 5 0 13 5 16 10 3 6 2 10 -4 10 -5 0
-13 -4 -16 -10z"/>
<path d="M2041 3109 c-1 -9 -8 -19 -16 -23 -8 -3 -15 -10 -15 -15 0 -6 7 -8
15 -5 9 4 15 0 15 -10 0 -9 5 -16 10 -16 6 0 10 7 10 16 0 11 6 14 18 10 13
-5 12 -2 -4 11 -12 10 -24 25 -27 33 -4 12 -6 12 -6 -1z"/>
<path d="M1991 3073 c0 -18 -6 -33 -12 -33 -7 0 -9 -10 -5 -26 5 -17 3 -23 -4
-19 -5 3 -10 1 -10 -5 0 -5 -15 -23 -32 -40 -26 -23 -40 -28 -68 -25 -29 4
-32 2 -16 -7 27 -15 80 -3 121 28 31 24 35 24 35 8 1 -17 2 -17 13 2 12 21 12
21 31 3 19 -19 19 -19 0 -20 -11 0 -4 -5 15 -10 40 -12 49 -6 27 16 -9 9 -16
21 -16 26 0 5 -11 15 -25 21 -14 6 -25 19 -25 28 0 9 -4 20 -9 26 -5 5 -11 20
-14 34 -4 21 -4 20 -6 -7z m18 -55 c5 -13 6 -27 3 -32 -6 -10 -20 19 -21 42
-1 20 9 14 18 -10z"/>
<path d="M1726 3041 c-3 -5 0 -13 7 -19 10 -8 13 -6 13 9 0 20 -11 25 -20 10z"/>
<path d="M1750 2990 c0 -5 5 -10 10 -10 6 0 10 5 10 10 0 6 -4 10 -10 10 -5 0
-10 -4 -10 -10z"/>
<path d="M2110 2985 c0 -8 5 -15 10 -15 6 0 10 7 10 15 0 8 -4 15 -10 15 -5 0
-10 -7 -10 -15z"/>
<path d="M1789 2946 c7 -8 21 -12 32 -9 16 5 18 8 7 14 -7 5 -21 9 -32 9 -15
0 -16 -3 -7 -14z"/>
<path d="M2156 2941 c-8 -12 3 -41 15 -41 12 0 12 37 0 45 -5 3 -12 1 -15 -4z"/>
<path d="M2112 2908 c-19 -19 -14 -29 8 -16 20 13 27 28 12 28 -4 0 -13 -5
-20 -12z"/>
<path d="M2050 2900 c0 -5 5 -10 11 -10 5 0 7 5 4 10 -3 6 -8 10 -11 10 -2 0
-4 -4 -4 -10z"/>
<path d="M2147 2858 c4 -22 3 -29 -5 -24 -7 4 -12 15 -12 24 0 13 -3 12 -15
-5 -9 -12 -14 -28 -13 -35 2 -7 -3 -12 -9 -10 -7 1 -13 -2 -13 -7 0 -5 11 -11
25 -13 16 -4 25 -1 25 8 0 7 5 16 12 20 8 5 9 -2 5 -24 -4 -20 -2 -32 4 -32 6
0 7 -4 4 -10 -3 -5 0 -29 7 -52 l13 -43 6 30 7 30 1 -32 c1 -37 21 -55 22 -21
1 23 1 23 9 -2 l8 -25 1 28 c1 16 -5 30 -14 33 -8 4 -15 10 -15 15 0 5 7 9 15
9 8 0 15 7 15 16 0 8 -4 12 -10 9 -5 -3 -20 3 -32 14 -20 19 -24 36 -27 119
-1 6 -5 12 -11 12 -5 0 -7 -13 -3 -32z"/>
<path d="M2077 2843 c-4 -3 -7 -11 -7 -17 0 -6 5 -5 12 2 6 6 9 14 7 17 -3 3
-9 2 -12 -2z"/>
<path d="M2207 2793 c-10 -10 -8 -33 2 -33 6 0 9 9 8 20 -1 23 -1 22 -10 13z"/>
<path d="M2067 2773 c-12 -12 -7 -22 8 -17 8 4 15 10 15 15 0 11 -14 12 -23 2z"/>
<path d="M4041 2701 c-11 -7 -10 -11 5 -19 10 -6 16 -14 12 -18 -4 -4 -19 1
-32 10 -32 21 -36 20 -36 -4 0 -17 -7 -20 -46 -20 -25 0 -73 7 -107 16 -49 13
-62 13 -69 2 -8 -10 -11 -10 -15 0 -7 19 -60 15 -68 -5 -7 -17 -8 -16 -15 2
-7 17 -9 17 -9 3 -1 -12 -9 -18 -27 -18 -14 0 -34 -5 -45 -10 -10 -6 -19 -7
-19 -2 0 4 -19 9 -42 9 -25 1 -47 8 -54 18 -7 9 -18 13 -28 9 -9 -3 -16 -1
-16 5 0 6 -5 11 -11 11 -5 0 -7 -4 -4 -10 6 -9 -5 -11 -62 -14 -10 -1 -22 -7
-26 -13 -4 -7 -15 -13 -23 -13 -8 0 -12 -4 -9 -10 3 -5 -1 -10 -9 -10 -9 0
-16 4 -16 8 0 5 -18 15 -41 22 -35 12 -49 11 -107 -3 -37 -10 -71 -19 -77 -20
-5 -1 -14 -5 -20 -9 -19 -11 -60 -1 -59 14 1 10 -7 15 -20 13 -11 0 -25 1 -31
4 -5 3 -17 7 -25 8 -14 3 -24 4 -79 3 -13 0 -33 -8 -44 -17 -19 -17 -19 -17
-13 5 9 28 -9 29 -26 2 -16 -26 -31 -26 -23 0 6 19 -14 50 -32 50 -4 0 -19
-10 -33 -21 -14 -11 -19 -18 -12 -14 10 5 11 -1 7 -22 l-5 -28 11 28 c12 31
29 36 29 8 0 -11 5 -23 10 -26 6 -3 10 -14 10 -24 0 -18 57 -54 72 -45 10 6
191 -27 203 -37 12 -12 38 -11 30 0 -6 11 33 36 43 27 3 -4 -3 -13 -14 -21
-10 -8 -15 -15 -10 -15 4 0 22 12 39 26 24 20 36 24 56 18 32 -10 281 -12 281
-2 0 4 32 6 70 5 39 -1 70 2 70 6 0 5 9 7 20 4 11 -3 18 -2 16 2 -3 4 77 8
177 8 191 1 320 21 351 53 13 13 11 19 -13 47 -18 22 -31 29 -40 24z m-329
-63 c-7 -7 -12 -8 -12 -2 0 6 3 14 7 17 3 4 9 5 12 2 2 -3 -1 -11 -7 -17z m38
2 c0 -5 -4 -10 -10 -10 -5 0 -10 5 -10 10 0 6 5 10 10 10 6 0 10 -4 10 -10z
m-840 -14 c0 -3 -4 -8 -10 -11 -5 -3 -10 -1 -10 4 0 6 5 11 10 11 6 0 10 -2
10 -4z"/>
<path d="M2116 2684 c-4 -9 -4 -19 -2 -21 8 -8 26 8 26 23 0 19 -16 18 -24 -2z"/>
<path d="M2249 2679 c-8 -17 -8 -20 2 -17 7 2 13 12 15 21 3 23 -3 21 -17 -4z"/>
<path d="M3370 2690 c0 -5 7 -10 15 -10 8 0 15 5 15 10 0 6 -7 10 -15 10 -8 0
-15 -4 -15 -10z"/>
<path d="M2154 2625 c0 -14 7 -25 15 -25 13 0 12 -14 -4 -52 -4 -11 -3 -18 4
-18 6 0 11 5 11 10 0 6 7 10 15 10 8 0 15 -6 15 -14 0 -8 3 -21 6 -30 4 -11 1
-16 -10 -16 -9 0 -16 7 -16 15 0 8 -4 15 -10 15 -5 0 -7 -7 -4 -15 4 -8 1 -15
-5 -15 -13 0 -4 -28 17 -52 12 -15 13 -20 2 -33 -11 -14 -10 -17 8 -22 12 -3
19 -9 16 -14 -3 -5 0 -9 5 -9 6 0 11 -17 11 -37 1 -35 2 -36 15 -19 15 20 35
14 35 -11 0 -10 -6 -13 -16 -9 -21 8 -10 -28 17 -55 24 -24 24 -36 -1 -44 -11
-3 -20 -13 -20 -21 0 -11 6 -13 20 -9 11 4 20 2 20 -4 0 -6 -8 -11 -19 -11
-10 0 -26 -11 -35 -25 -9 -14 -12 -25 -7 -25 5 0 13 9 16 20 10 30 26 24 20
-7 -3 -16 -2 -22 1 -16 4 10 11 10 26 2 17 -9 19 -8 16 12 -2 12 3 24 10 27 9
3 11 -3 6 -24 -6 -22 -4 -26 8 -21 13 4 16 -2 15 -29 -1 -26 -5 -34 -19 -34
-10 0 -18 -4 -18 -10 0 -5 16 -10 35 -10 42 0 54 -20 32 -53 -13 -20 -13 -26
-1 -50 16 -30 32 -35 40 -12 6 15 25 21 23 8 -4 -23 3 -43 13 -41 19 5 20 -28
2 -47 -10 -10 -13 -20 -8 -23 6 -4 11 -16 12 -27 8 -87 14 -102 37 -100 16 2
25 -3 28 -17 4 -15 11 -18 29 -13 16 4 19 3 9 -3 -11 -8 -9 -11 8 -17 23 -7
29 -25 9 -25 -7 0 -5 -5 6 -11 15 -9 16 -13 5 -20 -10 -6 -7 -11 11 -19 24
-10 24 -10 -5 -5 l-30 5 25 -15 25 -14 -25 -1 c-21 -1 -22 -3 -7 -9 10 -4 17
-11 16 -16 -1 -6 6 -12 15 -13 13 -3 16 0 11 9 -5 8 -4 10 3 5 7 -4 12 -14 12
-22 0 -12 4 -12 20 -4 12 7 18 16 13 23 -4 8 -1 7 9 -1 9 -8 15 -19 12 -27 -3
-7 3 -16 13 -19 29 -8 93 -5 93 5 0 5 5 9 11 9 5 0 7 -4 4 -10 -3 -5 3 -10 14
-10 16 0 19 -5 15 -25 -3 -18 0 -25 11 -25 8 0 15 -4 15 -10 0 -5 5 -10 10
-10 6 0 3 11 -5 24 -11 16 -13 26 -5 31 5 3 13 -1 16 -10 4 -9 15 -15 28 -13
17 2 21 -2 18 -23 -2 -25 -1 -26 33 -15 19 6 35 14 35 18 0 15 24 8 48 -14
l24 -23 -6 25 -7 25 20 -24 c15 -17 21 -19 21 -8 0 20 29 26 53 13 13 -8 20
-8 26 2 8 13 41 6 41 -9 0 -5 5 -9 10 -9 6 0 10 6 10 14 0 20 50 28 51 7 0
-10 2 -12 6 -3 6 16 53 16 53 0 0 -8 3 -9 8 -3 24 34 91 46 93 18 0 -11 3 -13
6 -5 2 6 11 12 19 12 8 0 11 7 8 18 -4 12 -3 13 3 4 7 -9 24 -8 82 6 39 10 74
15 77 10 3 -5 12 -4 20 3 8 6 14 8 14 3 0 -5 7 -1 14 9 8 10 20 20 28 22 37 9
58 18 58 26 0 5 8 9 18 9 10 0 13 -3 7 -8 -15 -11 -36 -62 -30 -73 10 -14 25
-10 25 7 0 8 4 13 9 9 5 -3 12 -1 16 5 4 6 10 8 15 5 4 -3 6 4 3 16 -4 16 -8
17 -14 7 -7 -10 -9 -9 -9 5 0 19 15 23 25 7 3 -5 18 -10 33 -9 18 0 22 3 12 7
-8 4 -16 18 -17 32 -2 24 -2 24 9 3 10 -20 46 -38 57 -28 2 3 -1 5 -7 5 -7 0
-12 11 -12 25 0 24 10 32 23 18 4 -3 2 -12 -4 -20 -8 -8 -8 -13 -1 -13 6 0 18
-3 26 -6 12 -5 15 -2 10 10 -4 11 -1 16 10 16 9 0 16 5 16 10 0 6 9 10 20 10
11 0 20 4 20 8 0 5 10 20 21 33 l21 24 -7 -24 c-6 -20 -5 -23 10 -17 10 3 25
1 33 -6 14 -12 14 -11 0 12 -18 30 -18 52 0 56 7 1 8 0 2 -3 -12 -6 6 -43 21
-43 6 0 7 5 4 11 -12 19 -12 59 -1 59 7 0 12 16 13 35 1 20 -3 32 -9 29 -8 -5
3 19 20 46 2 2 7 -2 12 -10 6 -8 10 -10 10 -4 0 6 -7 17 -15 24 -21 18 -19 33
10 60 21 20 25 21 31 6 3 -9 11 -16 17 -16 8 0 8 3 0 11 -9 9 -5 24 14 60 14
27 29 46 34 43 5 -3 9 2 9 10 0 9 5 16 10 16 6 0 10 7 10 16 0 8 -4 12 -10 9
-5 -3 -10 1 -10 10 0 9 5 13 10 10 6 -3 10 0 10 7 0 9 3 9 10 -2 8 -12 10 -10
10 8 0 14 4 20 10 17 20 -12 41 16 35 47 -4 17 -2 28 4 28 6 0 7 8 4 17 -5 13
-2 15 11 10 13 -5 17 -3 13 7 -4 10 -1 13 7 10 8 -3 17 0 22 7 4 7 2 15 -4 17
-7 2 -12 13 -12 24 0 14 -5 18 -15 14 -18 -6 -20 5 -3 22 24 24 0 21 -28 -3
-26 -22 -26 -30 -1 -26 4 0 7 -7 7 -16 0 -9 -3 -13 -7 -9 -4 3 -12 -3 -18 -14
l-11 -21 -24 21 c-13 11 -26 17 -29 14 -3 -4 0 -9 7 -11 6 -3 12 -11 12 -20 0
-8 -6 -13 -12 -10 -7 2 -29 -9 -49 -24 -43 -34 -51 -36 -42 -11 6 15 5 15 -10
3 -11 -9 -15 -21 -11 -37 4 -14 2 -24 -4 -24 -6 0 -13 10 -15 23 -3 16 -5 14
-6 -10 0 -17 -6 -35 -12 -39 -8 -5 -10 1 -6 18 5 18 3 25 -8 25 -8 0 -14 -5
-13 -11 4 -24 -14 -79 -22 -66 -4 7 -13 9 -19 6 -6 -4 -8 -12 -5 -18 5 -7 0
-9 -14 -6 -16 5 -22 2 -23 -10 0 -13 -2 -13 -9 3 -6 17 -8 14 -11 -15 -3 -30
-8 -35 -32 -38 -15 -2 -32 -13 -38 -24 -10 -19 -12 -19 -20 -5 -12 20 -35 12
-42 -14 -3 -12 -14 -19 -30 -19 -14 0 -28 -7 -31 -16 -3 -8 -11 -12 -16 -9 -6
4 -17 1 -25 -5 -8 -6 -19 -9 -26 -5 -8 5 -9 1 -4 -14 3 -11 3 -21 -2 -22 -4
-1 -23 -2 -41 -4 -18 -1 -42 -11 -53 -20 -10 -10 -22 -15 -25 -12 -4 3 -14 2
-23 -2 -9 -5 -35 -6 -59 -1 -29 5 -50 3 -68 -6 -47 -25 -103 -12 -91 20 4 9 2
16 -3 16 -10 0 -19 -4 -72 -31 -17 -9 -23 -9 -26 0 -2 6 -10 11 -18 11 -8 0
-23 9 -35 21 -19 19 -21 20 -33 3 -12 -16 -13 -15 -19 5 -3 11 -12 21 -21 21
-10 0 -13 5 -9 17 4 11 3 14 -5 9 -7 -4 -12 -2 -12 3 0 6 -6 11 -13 11 -7 0
-20 8 -28 18 -31 33 -58 51 -64 42 -4 -6 -13 -10 -22 -10 -13 0 -13 2 -2 17
13 15 12 15 -8 4 -19 -10 -23 -9 -23 4 0 8 5 15 11 15 5 0 7 5 3 11 -5 8 -8 8
-14 0 -5 -9 -10 -8 -20 4 -9 11 -16 12 -26 4 -7 -6 -17 -8 -23 -5 -5 3 -12 0
-15 -6 -3 -9 -14 -3 -31 17 -23 26 -26 27 -20 8 5 -18 3 -22 -9 -17 -9 3 -13
11 -9 17 4 7 -1 8 -13 4 -18 -7 -18 -6 -1 7 18 14 24 32 7 21 -5 -3 -10 -2
-10 3 0 14 -38 22 -44 8 -2 -6 -5 -1 -5 11 -1 24 -21 43 -21 19 0 -8 -5 -18
-12 -22 -8 -5 -9 0 -5 15 4 17 2 21 -9 17 -9 -3 -14 1 -14 13 0 12 -12 25 -29
32 -16 7 -27 17 -25 21 3 4 -7 13 -23 20 -22 9 -24 12 -10 15 22 6 22 16 -1
36 -20 19 -37 23 -27 7 11 -17 -10 -11 -31 10 -35 35 -45 50 -34 50 5 0 10 9
10 20 0 11 -4 20 -10 20 -5 0 -10 10 -10 22 0 16 -3 19 -11 11 -15 -15 -47 -5
-54 18 -4 10 -10 19 -15 19 -6 0 -6 10 0 25 10 26 3 58 -10 50 -5 -3 -12 0
-15 5 -5 7 -12 5 -20 -7 -12 -15 -16 -16 -27 -4 -10 11 -10 14 0 18 6 3 12 9
12 14 0 6 -4 8 -8 5 -4 -2 -14 9 -21 26 -11 24 -11 32 -1 38 7 4 9 16 5 29 -9
29 -27 27 -19 -3 3 -13 1 -27 -5 -30 -6 -4 -11 0 -11 9 0 9 -4 13 -10 10 -5
-3 -10 1 -10 10 0 11 -5 15 -14 12 -8 -3 -22 2 -32 12 -21 19 -26 21 -49 21
-8 0 -15 7 -15 15 0 8 -4 15 -10 15 -5 0 -10 7 -10 15 0 8 -4 15 -9 15 -5 0
-8 -11 -7 -25z m106 -80 c7 -8 18 -15 24 -15 17 0 56 -46 56 -65 0 -14 -4 -13
-20 6 -10 13 -19 18 -20 12 0 -7 -5 -13 -11 -13 -6 0 -9 7 -6 15 4 8 2 17 -4
20 -5 4 -12 -1 -15 -9 -10 -26 -26 -18 -23 12 2 15 0 33 -4 40 -11 17 8 15 23
-3z m-32 -101 c0 -20 -4 -31 -10 -28 -5 4 -8 15 -5 25 3 12 0 19 -9 19 -21 0
-17 16 5 17 15 1 19 -5 19 -33z m202 -51 c0 -17 -26 -39 -42 -35 -15 4 -17 7
-6 13 10 7 10 9 1 9 -7 0 -13 4 -13 9 0 5 14 9 30 9 17 -1 30 -3 30 -5z m-70
-7 c0 -2 -7 -6 -15 -10 -8 -3 -15 -1 -15 4 0 6 7 10 15 10 8 0 15 -2 15 -4z
m-70 -26 c0 -5 -2 -10 -4 -10 -3 0 -8 5 -11 10 -3 6 -1 10 4 10 6 0 11 -4 11
-10z m140 -60 c0 -5 -2 -10 -4 -10 -3 0 -8 5 -11 10 -3 6 -1 10 4 10 6 0 11
-4 11 -10z m197 -196 c-3 -3 -12 -4 -19 -1 -8 3 -5 6 6 6 11 1 17 -2 13 -5z
m1663 -34 c0 -5 -10 -10 -23 -10 -13 0 -28 -5 -35 -12 -16 -16 -15 -1 1 17 14
16 57 20 57 5z m84 -25 c-7 -18 -8 -18 -14 1 -9 23 -1 39 11 27 6 -6 6 -18 3
-28z m-1684 21 c0 -11 -19 -15 -25 -6 -3 5 1 10 9 10 9 0 16 -2 16 -4z m-270
-121 c-7 -9 -15 -13 -19 -10 -3 3 1 10 9 15 21 14 24 12 10 -5z m5 -45 c-6
-20 -7 -21 -20 -3 -12 15 -11 19 3 24 22 8 25 5 17 -21z m545 10 c0 -5 -4 -10
-10 -10 -5 0 -10 5 -10 10 0 6 5 10 10 10 6 0 10 -4 10 -10z m1279 -12 c-9
-16 -14 -19 -17 -9 -2 7 2 17 9 22 20 13 21 11 8 -13z m-319 -43 c0 -8 -4 -15
-10 -15 -5 0 -10 -10 -10 -22 -1 -22 -1 -22 -12 -4 -8 15 -8 21 0 24 7 2 12
10 12 18 0 8 5 14 10 14 6 0 10 -7 10 -15z m-1410 -65 c0 -5 -4 -10 -10 -10
-5 0 -10 5 -10 10 0 6 5 10 10 10 6 0 10 -4 10 -10z m50 -20 c0 -5 -7 -10 -15
-10 -8 0 -15 5 -15 10 0 6 7 10 15 10 8 0 15 -4 15 -10z m-60 -31 c0 -5 -4 -9
-10 -9 -5 0 -10 7 -10 16 0 8 5 12 10 9 6 -3 10 -10 10 -16z m1630 -26 c0 -5
-5 -15 -10 -23 -8 -12 -10 -11 -10 8 0 12 5 22 10 22 6 0 10 -3 10 -7z m-1616
-29 c5 -14 4 -15 -9 -4 -17 14 -19 20 -6 20 5 0 12 -7 15 -16z m1615 -26 c-9
-16 -14 -19 -17 -9 -2 7 2 17 9 22 20 13 21 11 8 -13z m-55 -3 c-4 -8 -10 -12
-15 -9 -11 6 -2 24 11 24 5 0 7 -7 4 -15z m-8 -52 c-10 -10 -19 5 -10 18 6 11
8 11 12 0 2 -7 1 -15 -2 -18z m-1439 1 c-3 -3 -12 -4 -19 -1 -8 3 -5 6 6 6 11
1 17 -2 13 -5z m23 -84 c0 -5 -2 -10 -4 -10 -3 0 -8 5 -11 10 -3 6 -1 10 4 10
6 0 11 -4 11 -10z m15 -20 c3 -6 -4 -10 -17 -10 -18 0 -20 2 -8 10 19 12 18
12 25 0z m85 -2 c0 -4 -4 -8 -9 -8 -6 0 -12 4 -15 8 -3 5 1 9 9 9 8 0 15 -4
15 -9z m25 -18 c3 -5 1 -10 -4 -10 -6 0 -11 5 -11 10 0 6 2 10 4 10 3 0 8 -4
11 -10z m-24 -17 c8 -8 5 -14 -9 -22 -14 -7 -23 -8 -27 -1 -3 5 0 10 7 10 8 1
5 7 -7 16 -19 14 -19 15 3 11 12 -2 27 -8 33 -14z m39 -13 c0 -5 -4 -10 -10
-10 -5 0 -10 5 -10 10 0 6 5 10 10 10 6 0 10 -4 10 -10z"/>
<path d="M2145 2560 c3 -5 8 -10 11 -10 2 0 4 5 4 10 0 6 -5 10 -11 10 -5 0
-7 -4 -4 -10z"/>
<path d="M2794 2524 c-17 -14 -17 -15 -1 -10 10 3 23 6 28 6 5 0 9 5 9 10 0
14 -13 12 -36 -6z"/>
<path d="M3350 2306 c0 -14 -5 -26 -12 -26 -6 0 -8 -3 -5 -6 4 -4 14 -1 23 7
14 12 16 11 12 -6 -2 -11 -10 -19 -16 -17 -14 2 -15 -8 -3 -27 7 -11 10 -9 16
8 3 11 11 21 16 21 15 0 10 20 -11 47 l-20 26 0 -27z"/>
<path d="M3417 2323 c-4 -3 -7 -16 -6 -27 0 -19 1 -19 10 3 10 24 8 36 -4 24z"/>
<path d="M3307 2314 c-3 -3 -3 -13 1 -22 5 -15 3 -15 -10 -4 -14 11 -17 10
-23 -8 -4 -12 -4 -24 -1 -27 3 -4 6 2 7 13 0 15 2 14 11 -6 l11 -25 10 28 c6
15 14 27 19 27 4 0 5 7 2 15 -6 16 -17 19 -27 9z"/>
<path d="M3580 2294 c0 -14 4 -23 9 -20 5 3 7 15 4 26 -7 28 -13 25 -13 -6z"/>
<path d="M3510 2299 c0 -6 -6 -9 -14 -6 -10 4 -12 0 -9 -14 6 -23 5 -23 31 0
12 10 19 21 15 25 -10 10 -23 7 -23 -5z"/>
<path d="M4436 2255 c-10 -51 4 -64 20 -19 17 49 17 54 0 54 -8 0 -17 -15 -20
-35z"/>
<path d="M2210 2270 c0 -5 5 -10 11 -10 5 0 7 5 4 10 -3 6 -8 10 -11 10 -2 0
-4 -4 -4 -10z"/>
<path d="M3410 2260 c0 -5 5 -10 11 -10 5 0 7 5 4 10 -3 6 -8 10 -11 10 -2 0
-4 -4 -4 -10z"/>
<path d="M3437 2257 c-12 -30 -8 -43 13 -44 11 -1 20 2 20 8 0 5 -4 9 -9 9 -5
0 -11 10 -13 23 -3 20 -4 20 -11 4z"/>
<path d="M3322 2230 c0 -14 2 -19 5 -12 2 6 2 18 0 25 -3 6 -5 1 -5 -13z"/>
<path d="M4300 2250 c-8 -26 -7 -41 2 -32 6 6 8 16 5 24 -3 7 -6 11 -7 8z"/>
<path d="M2190 2236 c0 -2 7 -6 15 -10 8 -3 15 -1 15 4 0 6 -7 10 -15 10 -8 0
-15 -2 -15 -4z"/>
<path d="M4210 2221 c0 -6 4 -13 10 -16 6 -3 7 1 4 9 -7 18 -14 21 -14 7z"/>
<path d="M4330 2206 c0 -9 5 -16 10 -16 6 0 10 4 10 9 0 6 -4 13 -10 16 -5 3
-10 -1 -10 -9z"/>
<path d="M2210 2200 c0 -5 5 -10 10 -10 6 0 10 5 10 10 0 6 -4 10 -10 10 -5 0
-10 -4 -10 -10z"/>
<path d="M3360 2199 c0 -5 5 -7 10 -4 6 3 10 8 10 11 0 2 -4 4 -10 4 -5 0 -10
-5 -10 -11z"/>
<path d="M4165 2200 c28 -12 37 -12 30 0 -3 6 -16 10 -28 9 -21 0 -21 -1 -2
-9z"/>
<path d="M3340 2170 c-12 -8 -11 -10 8 -10 12 0 22 5 22 10 0 13 -11 13 -30 0z"/>
<path d="M3405 2140 c-3 -6 1 -7 9 -4 18 7 21 14 7 14 -6 0 -13 -4 -16 -10z"/>
<path d="M2260 2030 c0 -5 5 -10 10 -10 6 0 10 5 10 10 0 6 -4 10 -10 10 -5 0
-10 -4 -10 -10z"/>
<path d="M2345 1980 c-3 -5 -1 -10 4 -10 6 0 11 5 11 10 0 6 -2 10 -4 10 -3 0
-8 -4 -11 -10z"/>
<path d="M2245 1950 c-3 -5 -1 -10 4 -10 6 0 11 5 11 10 0 6 -2 10 -4 10 -3 0
-8 -4 -11 -10z"/>
<path d="M2350 1940 c0 -5 5 -10 10 -10 6 0 10 5 10 10 0 6 -4 10 -10 10 -5 0
-10 -4 -10 -10z"/>
<path d="M2216 1925 c-9 -26 -7 -32 5 -12 6 10 9 21 6 23 -2 3 -7 -2 -11 -11z"/>
<path d="M2242 1911 c4 -13 18 -16 19 -4 0 4 -5 9 -11 12 -7 2 -11 -2 -8 -8z"/>
<path d="M2366 1895 c4 -16 11 -39 15 -50 7 -18 8 -18 8 5 0 14 -6 36 -14 50
l-15 25 6 -30z"/>
<path d="M2340 1896 c0 -8 4 -17 9 -20 5 -4 7 3 4 14 -6 23 -13 26 -13 6z"/>
<path d="M2300 1880 c-6 -11 -9 -26 -7 -33 3 -7 10 1 16 17 14 35 7 47 -9 16z"/>
<path d="M2421 1844 c0 -11 3 -14 6 -6 3 7 2 16 -1 19 -3 4 -6 -2 -5 -13z"/>
<path d="M2267 1843 c-4 -3 -7 -11 -7 -17 0 -6 5 -5 12 2 6 6 9 14 7 17 -3 3
-9 2 -12 -2z"/>
<path d="M2320 1831 c-14 -27 -13 -36 3 -23 8 7 18 7 27 2 36 -23 40 -3 5 23
-23 17 -25 17 -35 -2z"/>
<path d="M2385 1789 c-4 -6 -5 -13 -2 -16 7 -7 27 6 27 18 0 12 -17 12 -25 -2z"/>
<path d="M3730 1790 c0 -5 5 -10 10 -10 6 0 10 5 10 10 0 6 -4 10 -10 10 -5 0
-10 -4 -10 -10z"/>
<path d="M2350 1761 c0 -5 5 -13 10 -16 6 -3 10 -2 10 4 0 5 -4 13 -10 16 -5
3 -10 2 -10 -4z"/>
<path d="M2395 1750 c-3 -5 -1 -10 4 -10 6 0 11 5 11 10 0 6 -2 10 -4 10 -3 0
-8 -4 -11 -10z"/>
<path d="M2073 1715 c-13 -13 -23 -27 -23 -31 0 -4 -7 -12 -15 -18 -29 -22
-47 -130 -42 -254 2 -65 7 -130 11 -147 3 -16 9 -42 12 -57 12 -60 22 -34 17
42 -4 71 -3 83 14 96 10 9 13 13 7 10 -7 -3 -15 1 -18 10 -9 22 -8 24 9 24 8
0 15 4 15 8 0 5 7 9 15 9 8 0 12 -4 9 -9 -3 -4 -1 -8 5 -8 6 0 9 -18 6 -45 -4
-34 -2 -43 9 -39 9 3 12 19 9 52 -6 86 -4 112 10 131 8 10 7 16 -6 26 -9 6
-18 21 -20 31 -4 27 -17 45 -27 39 -5 -3 2 25 15 62 36 97 32 115 -12 68z m8
-277 c-9 -20 -10 -18 -10 17 0 31 2 36 9 23 6 -10 7 -25 1 -40z"/>
<path d="M2418 1718 c9 -9 15 -9 24 0 9 9 7 12 -12 12 -19 0 -21 -3 -12 -12z"/>
<path d="M2390 1678 c0 -8 5 -19 12 -26 8 -8 8 -12 1 -12 -6 0 -13 -7 -17 -15
-4 -12 -2 -13 13 -6 13 7 24 6 41 -6 17 -12 25 -13 28 -5 2 7 12 12 23 12 10
0 19 6 19 13 0 9 -12 13 -34 13 -19 -1 -32 -4 -29 -8 2 -5 -3 -8 -11 -8 -9 0
-16 8 -16 19 0 10 -7 24 -15 31 -12 10 -15 10 -15 -2z"/>
<path d="M1730 1633 c-8 -3 -22 -11 -30 -18 -8 -7 -33 -18 -55 -25 -44 -14
-65 -31 -65 -52 0 -8 -9 -24 -20 -35 -12 -13 -15 -23 -8 -25 7 -3 7 -11 -3
-25 -7 -12 -10 -26 -6 -30 5 -4 12 -1 17 7 9 13 10 13 10 0 0 -13 1 -13 10 0
8 13 10 13 10 1 0 -9 13 0 30 19 17 18 30 29 30 24 0 -5 7 0 15 10 14 19 15
18 24 -5 7 -17 10 -19 10 -6 1 9 6 17 11 17 6 0 10 9 10 21 0 18 21 49 33 49
2 0 1 -19 -4 -42 -9 -46 -12 -195 -4 -187 2 3 11 52 19 110 16 109 27 153 45
164 6 3 11 13 11 21 0 14 -57 19 -90 7z"/>
<path d="M2485 1601 c-9 -16 13 -23 35 -11 11 6 20 13 20 15 0 9 -49 5 -55 -4z"/>
<path d="M1880 1593 c0 -6 -10 -9 -22 -7 -21 4 -21 4 -3 -5 18 -8 17 -9 -10
-13 -28 -5 -28 -5 -4 -7 26 -1 58 24 45 36 -3 3 -6 2 -6 -4z"/>
<path d="M2532 1574 c-7 -8 -10 -19 -7 -25 4 -6 12 -3 21 8 24 32 12 47 -14
17z"/>
<path d="M2448 1568 c9 -9 15 -9 24 0 9 9 7 12 -12 12 -19 0 -21 -3 -12 -12z"/>
<path d="M4447 1560 c-17 -14 -25 -29 -24 -48 2 -32 27 -72 44 -72 7 0 16 -6
20 -14 4 -8 24 -21 43 -29 19 -9 78 -43 130 -75 108 -67 125 -91 161 -227 17
-67 19 -97 14 -181 -3 -56 -13 -128 -21 -160 -27 -105 -27 -113 -5 -74 51 88
73 281 46 405 -8 39 -22 123 -30 189 -22 162 -50 211 -141 247 -40 16 -147 38
-157 32 -4 -2 -14 3 -23 11 -20 21 -26 20 -57 -4z"/>
<path d="M1823 1543 c9 -2 23 -2 30 0 6 3 -1 5 -18 5 -16 0 -22 -2 -12 -5z"/>
<path d="M2450 1540 c0 -5 4 -10 9 -10 6 0 13 5 16 10 3 6 -1 10 -9 10 -9 0
-16 -4 -16 -10z"/>
<path d="M1520 1519 c0 -5 5 -7 10 -4 6 3 10 8 10 11 0 2 -4 4 -10 4 -5 0 -10
-5 -10 -11z"/>
<path d="M2485 1511 c-3 -5 -1 -12 5 -16 5 -3 10 1 10 9 0 18 -6 21 -15 7z"/>
<path d="M2543 1476 c-33 -16 -28 -26 10 -20 25 5 29 3 17 -6 -13 -10 -13 -11
0 -7 19 5 25 33 8 39 -7 2 -23 -1 -35 -6z"/>
<path d="M2770 1400 c0 -5 5 -10 10 -10 6 0 10 5 10 10 0 6 -4 10 -10 10 -5 0
-10 -4 -10 -10z"/>
<path d="M1676 1375 c4 -8 8 -15 10 -15 2 0 4 7 4 15 0 8 -4 15 -10 15 -5 0
-7 -7 -4 -15z"/>
<path d="M2978 1333 c6 -2 18 -2 25 0 6 3 1 5 -13 5 -14 0 -19 -2 -12 -5z"/>
<path d="M2888 1323 c6 -2 18 -2 25 0 6 3 1 5 -13 5 -14 0 -19 -2 -12 -5z"/>
<path d="M2966 1311 c-4 -5 3 -7 14 -4 23 6 26 13 6 13 -8 0 -17 -4 -20 -9z"/>
<path d="M1755 1209 c-13 -20 45 -269 85 -364 4 -11 11 -28 14 -39 5 -16 9
-16 24 -5 14 11 15 11 5 -1 -18 -20 -16 -50 3 -50 8 0 13 -4 9 -9 -6 -11 15
-61 26 -61 5 0 2 17 -5 38 -7 20 -11 43 -8 51 3 9 0 11 -8 6 -9 -5 -10 -2 -6
11 3 11 1 26 -4 34 -9 13 -11 13 -20 0 -5 -8 -10 -11 -10 -6 0 5 7 18 17 28 9
10 11 18 5 18 -6 0 -9 6 -6 13 3 8 -2 20 -11 27 -14 12 -14 15 2 34 10 12 11
15 3 9 -19 -18 -33 -16 -26 2 3 8 0 15 -6 15 -6 0 -5 6 3 17 10 11 10 14 2 9
-7 -4 -13 -3 -13 1 0 5 6 15 13 22 10 10 9 11 -5 6 -11 -5 -18 0 -24 17 -4 13
-6 25 -6 28 1 3 -5 15 -13 27 -13 19 -12 23 8 37 l22 17 -22 -11 c-29 -14 -29
-14 -31 18 -5 75 -6 79 -17 61z"/>
<path d="M2030 1146 c0 -9 5 -16 10 -16 6 0 10 4 10 9 0 6 -4 13 -10 16 -5 3
-10 -1 -10 -9z"/>
<path d="M1920 664 c0 -3 7 -12 15 -20 16 -17 18 -14 9 10 -6 15 -24 23 -24
10z"/>
<path d="M1201 594 c0 -11 3 -14 6 -6 3 7 2 16 -1 19 -3 4 -6 -2 -5 -13z"/>
<path d="M81 434 c0 -11 3 -14 6 -6 3 7 2 16 -1 19 -3 4 -6 -2 -5 -13z"/>
<path d="M101 434 c0 -11 3 -14 6 -6 3 7 2 16 -1 19 -3 4 -6 -2 -5 -13z"/>
</g>
</svg>
